<?xml version="1.0" encoding="UTF-8" standalone="no"?>
<!-- Created with Inkscape (http://www.inkscape.org/) -->

<svg
   version="1.1"
   id="svg1"
   width="1792"
   height="2368"
   viewBox="0 0 1792 2368"
   sodipodi:docname="overlay.svg"
   xml:space="preserve"
   inkscape:version="1.3 (0e150ed6c4, 2023-07-21)"
   inkscape:export-filename="overlay.png"
   inkscape:export-xdpi="96"
   inkscape:export-ydpi="96"
   xmlns:inkscape="http://www.inkscape.org/namespaces/inkscape"
   xmlns:sodipodi="http://sodipodi.sourceforge.net/DTD/sodipodi-0.dtd"
   xmlns:xlink="http://www.w3.org/1999/xlink"
   xmlns="http://www.w3.org/2000/svg"
   xmlns:svg="http://www.w3.org/2000/svg"><defs
     id="defs1"><linearGradient
       id="linearGradient2"
       inkscape:collect="always"><stop
         style="stop-color:#ff8f1f;stop-opacity:1;"
         offset="0.47761193"
         id="stop2" /><stop
         style="stop-color:#ff2b00;stop-opacity:1;"
         offset="1"
         id="stop3" /></linearGradient><linearGradient
       inkscape:collect="always"
       xlink:href="#linearGradient2"
       id="linearGradient3"
       x1="469.47171"
       y1="423.2612"
       x2="1115.1279"
       y2="1156.9381"
       gradientUnits="userSpaceOnUse" /><radialGradient
       inkscape:collect="always"
       xlink:href="#linearGradient2"
       id="radialGradient5"
       cx="1463.824"
       cy="1316.6074"
       fx="1463.824"
       fy="1316.6074"
       r="340.12213"
       gradientTransform="matrix(-1.0156888,0.23684926,-0.77132206,-3.3076872,3424.5159,5311.0821)"
       gradientUnits="userSpaceOnUse" /></defs><sodipodi:namedview
     id="namedview1"
     pagecolor="#505050"
     bordercolor="#ffffff"
     borderopacity="1"
     inkscape:showpageshadow="0"
     inkscape:pageopacity="0"
     inkscape:pagecheckerboard="1"
     inkscape:deskcolor="#505050"
     inkscape:zoom="0.515625"
     inkscape:cx="767.0303"
     inkscape:cy="1290.6667"
     inkscape:window-width="2490"
     inkscape:window-height="1417"
     inkscape:window-x="62"
     inkscape:window-y="1129"
     inkscape:window-maximized="1"
     inkscape:current-layer="g1" /><g
     inkscape:groupmode="layer"
     inkscape:label="Image"
     id="g1"><image
       width="1792"
       height="2368"
       preserveAspectRatio="none"
       xlink:href="../../../../../../Downloads/mtb-disc-brake-spacer-side-profile.png"
       id="image1" /></g><g
     inkscape:groupmode="layer"
     id="layer3"
     inkscape:label="cord path"><path
       style="color:#000000;fill:url(#linearGradient3);stroke-linecap:round;stroke-miterlimit:2.9;-inkscape-stroke:none"
       d="m 593.41211,328.62891 c -54.98252,0.60144 -111.06387,23.42747 -151.06445,65.75781 l -0.0606,0.0625 -0.0586,0.0644 c -32.35353,35.8656 -53.82515,87.52981 -53.66602,142.72852 0.15913,55.1987 22.33195,113.90832 76.72852,162.41797 l 0.16601,0.14843 131.75781,104.09375 0.0781,0.0586 c 16.35618,12.23945 33.12036,12.19576 45.20703,7.66015 12.08667,-4.5356 19.69789,-12.24861 22.99219,-16.57031 l -0.12305,0.15625 54.75586,-68.00586 c 1.99279,-2.42199 1.78578,-1.64412 3.28125,-1.15625 1.49547,0.48788 2.99219,1.70117 2.99219,1.70117 l 0.21093,0.19532 0.22657,0.17968 c 110.9298,87.94709 179.30022,143.56962 259.05273,326.99021 l 58.05663,134.4121 0.1777,0.3223 c 13.1929,23.835 31.8674,33.0255 47.1153,35.1172 7.6239,1.0458 14.371,0.4787 19.4453,-0.4199 5.0743,-0.8987 7.9926,-1.907 9.7051,-2.6367 l 0.3554,-0.1504 0.336,-0.1856 c -0.3446,0.1906 4.0804,-2.104 8.7929,-5.3984 4.7126,-3.2944 10.584,-8.0547 15.9004,-14.4668 10.6329,-12.8243 18.6425,-33.3635 8.7188,-57.9727 l -0.021,-0.051 -59.1426,-140.6855 v -0 C 1030.7944,849.42487 957.74671,752.42076 806.29297,633.76172 c -3.82858,-3.25492 -3.69701,-4.903 -3.63281,-6.1582 0.0619,-1.21104 0.34558,-1.6069 0.36718,-1.63868 l 54.74414,-67.22656 0.0723,-0.0918 c 15.56563,-20.37641 13.22901,-40.64495 6.36133,-53.92187 -6.4442,-12.45822 -15.99459,-19.75229 -17.1875,-20.63672 l -135.35742,-115.2207 -0.0352,-0.0293 C 678.27616,341.13724 636.17629,328.16112 593.41211,328.62891 Z m -0.082,15.23242 c 39.57677,-0.49529 78.38354,11.33149 108.69922,36.50781 0.004,0.003 0.008,0.005 0.0117,0.008 l 135.46875,115.31641 0.22851,0.16406 c 0,0 8.13197,6.07302 13.14258,15.75977 5.00691,9.6796 7.53041,21.55009 -4.93359,37.88867 l -55.13477,67.70312 -0.18359,0.26954 c 0,0 -2.67327,3.96156 -2.94922,9.35742 -0.27595,5.39585 2.16977,12.64794 8.91992,18.37695 l 0.11328,0.0957 0.11523,0.0899 C 947.1684,763.1466 1017.6177,856.78685 1081.5,1008.8066 l 59.0859,140.5547 c 7.9113,19.6378 1.9668,32.7274 -6.3593,42.7696 -4.1645,5.0228 -9.0264,9.007 -12.9473,11.748 -3.6871,2.5776 -5.5903,3.5167 -7.0156,4.293 0.176,-0.085 -2.4726,0.9419 -6.1973,1.6015 -3.8728,0.6859 -9.0865,1.1104 -14.7891,0.3282 -11.3614,-1.5586 -24.7402,-7.2873 -35.9003,-27.3086 l -57.73052,-133.6543 -0.002,-0.01 C 919.07132,863.82273 847.1677,804.38055 736.1543,716.36719 l 0.4375,0.375 c 0,0 -3.32779,-3.25821 -8.53516,-4.95703 -5.20737,-1.69883 -13.99521,-0.82462 -19.51562,5.88476 l -0.0254,0.0312 -54.89257,68.17578 -0.0606,0.0801 c -1.20789,1.5846 -7.93847,8.4694 -16.33203,11.61914 -8.38561,3.14676 -18.23019,3.87454 -30.91406,-5.60156 L 475.16992,688.36523 c -51.36448,-45.85725 -71.45976,-99.94799 -71.60742,-151.16796 -0.14767,-51.22386 20.03423,-99.59569 49.75,-132.57032 37.02231,-39.14161 89.15461,-60.12909 140.01758,-60.76562 z"
       id="path1-5" /><path
       style="fill:none;fill-opacity:0.524962;stroke:url(#radialGradient5);stroke-width:15;stroke-linecap:round;stroke-miterlimit:2.9;stroke-dasharray:none"
       d="m 1074.4242,1266.4242 c 0,0 -96.77474,343.8269 -62.4908,624.9555 0,0 31.8435,245.8658 206.006,358.3172 128.9078,69.9393 304.5823,-77.1483 314.1818,-389.8181 1.3714,-296.2135 -43.211,-790.8385 -124.1212,-1203.61742 -23.3131,-91.84066 -94.9259,-229.6518 -221.0909,-262.56441 0,0 -163.6651,-41.02658 -320.00001,65.93939"
       id="path4"
       sodipodi:nodetypes="ccccccc" /></g><g
     inkscape:groupmode="layer"
     id="layer2"
     inkscape:label="outline path"><path
       style="display:none;fill:none;fill-opacity:0.524962;stroke:#000000;stroke-width:15;stroke-linecap:round;stroke-miterlimit:2.9;stroke-dasharray:none;stroke-opacity:1"
       d="M 711.4116,376.35989 C 638.65025,315.92191 520.84539,328.834 452.37727,401.28991 c -62.10046,68.84166 -83.35768,200.1375 22.48477,294.52545 l 131.50437,103.89332 c 29.05751,21.74396 53.23815,-1.54558 57.74035,-7.45189 l 54.80528,-68.06788 c 7.51322,-9.13138 17.1623,-0.19229 17.1623,-0.19229 110.97171,87.98031 181.10767,145.5134 261.27061,329.87788 l 57.91925,134.0913 c 24.3788,44.0442 64.2266,29.8752 66.7646,28.7937 2.1725,-1.2017 47.9336,-24.2115 30.0864,-68.4697 L 1092.9931,1007.654 C 1028.7692,854.82143 957.00483,759.4905 806.03214,641.24702 c -10.5972,-8.99409 -4.61811,-17.80311 -4.61811,-17.80311 l 55.04833,-67.59789 c 28.06104,-36.7337 -9.72609,-64.29423 -9.72609,-64.29423 z"
       id="path1"
       sodipodi:nodetypes="ccccccccccccccccc"
       inkscape:label="path" /></g></svg>
