<?xml version="1.0" encoding="UTF-8" standalone="no"?>
<!-- Generator: Fusion 360, Shaper Origin Export Add-In, Version 1.7.0  -->

<svg
   shaper:fusionaddin="version:1.7.0"
   width="5cm"
   height="5cm"
   version="1.1"
   x="0cm"
   y="0cm"
   viewBox="0 0 5 5"
   enable-background="new 0 0 5 5"
   xml:space="preserve"
   id="svg2"
   sodipodi:docname="avatar.svg"
   inkscape:version="1.3.2 (091e20e, 2023-11-25, custom)"
   xmlns:inkscape="http://www.inkscape.org/namespaces/inkscape"
   xmlns:sodipodi="http://sodipodi.sourceforge.net/DTD/sodipodi-0.dtd"
   xmlns="http://www.w3.org/2000/svg"
   xmlns:svg="http://www.w3.org/2000/svg"
   xmlns:shaper="http://www.shapertools.com/namespaces/shaper"><defs
     id="defs2" /><sodipodi:namedview
     id="namedview2"
     pagecolor="#505050"
     bordercolor="#ffffff"
     borderopacity="1"
     inkscape:showpageshadow="0"
     inkscape:pageopacity="0"
     inkscape:pagecheckerboard="1"
     inkscape:deskcolor="#505050"
     inkscape:document-units="cm"
     inkscape:zoom="4"
     inkscape:cx="102.75"
     inkscape:cy="104.125"
     inkscape:window-width="2498"
     inkscape:window-height="1417"
     inkscape:window-x="54"
     inkscape:window-y="-8"
     inkscape:window-maximized="1"
     inkscape:current-layer="layer1" /><g
     id="Body_outer_1"><path
       d="m 0.6069004,-0.3733198 0.357856,2.6796687 A 2.5,2.5 67.300217 0 1 -1.6558813,-1.8729809 L -1.14,1.99 -0.5570953,1.9050509 Z"
       transform="matrix(1,0,0,-1,2.5,2.5)"
       fill="#000000"
       shaper:cutDepth="0.3cm"
       stroke-linecap="round"
       stroke-linejoin="round"
       id="path1" /></g><g
     id="outer_right_n"><path
       d="m -0.5915293,0.2799743 -0.3468406,-2.5971842 a 2.5,2.5 -112.04582 0 1 2.619113,4.1679132 l -0.5244318,-3.9270078 -0.5838786,0.077974 z"
       transform="matrix(1,0,0,-1,2.5,2.5)"
       fill="#000000"
       shaper:cutDepth="0.3cm"
       stroke-linecap="round"
       stroke-linejoin="round"
       id="path2" /></g><g
     inkscape:groupmode="layer"
     id="layer1"
     inkscape:label="inner n"><path
       style="fill:#000000;fill-opacity:1;stroke-width:0.0264583"
       d="M 1.3597971,0.51008387 0.76103939,5.0031557 1.5350733,5.0064237 1.9085655,2.2205669 3.0725323,4.4981055 3.6563139,4.5763608 4.268053,-0.00435071 3.4925206,-0.00406194 3.10689,2.8731058 1.943137,0.59520908 Z"
       id="path3"
       sodipodi:nodetypes="ccccccccccc"
       inkscape:export-filename="avatar-inverted.svg"
       inkscape:export-xdpi="96"
       inkscape:export-ydpi="96" /></g></svg>
