<?xml version="1.0" encoding="UTF-8" standalone="no"?>
<!-- Created with Inkscape (http://www.inkscape.org/) -->

<svg
   width="512"
   height="512"
   viewBox="0 0 135.46667 135.46667"
   version="1.1"
   id="svg1"
   xml:space="preserve"
   inkscape:export-filename="terminal.png"
   inkscape:export-xdpi="96"
   inkscape:export-ydpi="96"
   inkscape:version="1.3.2 (091e20e, 2023-11-25, custom)"
   sodipodi:docname="terminal.svg"
   xmlns:inkscape="http://www.inkscape.org/namespaces/inkscape"
   xmlns:sodipodi="http://sodipodi.sourceforge.net/DTD/sodipodi-0.dtd"
   xmlns="http://www.w3.org/2000/svg"
   xmlns:svg="http://www.w3.org/2000/svg"><sodipodi:namedview
     id="namedview1"
     pagecolor="#505050"
     bordercolor="#ffffff"
     borderopacity="1"
     inkscape:showpageshadow="0"
     inkscape:pageopacity="0"
     inkscape:pagecheckerboard="1"
     inkscape:deskcolor="#505050"
     inkscape:document-units="mm"
     inkscape:export-bgcolor="#ffffff00"
     inkscape:zoom="1.1492003"
     inkscape:cx="260.18092"
     inkscape:cy="296.72807"
     inkscape:window-width="1350"
     inkscape:window-height="1212"
     inkscape:window-x="2389"
     inkscape:window-y="56"
     inkscape:window-maximized="0"
     inkscape:current-layer="layer2" /><defs
     id="defs1" /><g
     inkscape:label="terminal"
     inkscape:groupmode="layer"
     id="layer1"><g
       inkscape:groupmode="layer"
       id="layer2"
       inkscape:label="filled"
       style="display:inline"
       sodipodi:insensitive="true"><path
         id="path2"
         style="opacity:1;fill:#000000;fill-opacity:1;stroke:none;stroke-width:4.7625;stroke-linecap:round;stroke-linejoin:round;stroke-opacity:1"
         d="M 103.86447,4.995 27.427275,5.6859139 13.153211,13.053423 4.1739139,28.478838 c 0,0 -0.2304494,68.379179 -0.6909139,70.221037 l 2.1771281,11.703165 8.1400719,11.39569 15.954065,9.76839 75.213495,-1.62832 11.72125,-4.23282 10.41952,-8.46563 2.93005,-14.65182 -0.84853,-72.958341 -7.59747,-16.116329 z M 31.799101,42.830417 c 0.502987,0.0087 1.009351,0.109318 1.4981,0.315226 1.439631,0.606512 24.618292,21.585951 25.086324,22.706108 1.265616,3.029042 1.162295,3.156668 -12.287105,15.246614 -13.569504,12.197908 -13.561557,12.192564 -16.248621,10.998295 -2.237717,-0.994559 -3.256353,-3.604582 -2.300118,-5.89318 0.252834,-0.60511 3.660653,-3.851322 10.13995,-9.657809 5.367678,-4.810301 9.759611,-8.809181 9.759611,-8.886796 0,-0.07761 -4.391933,-4.077011 -9.759611,-8.887312 C 27.254882,49.422146 26.98807,49.116902 27.246924,46.820354 c 0.263585,-2.338515 2.372566,-4.027821 4.552177,-3.989937 z m 47.946944,40.58667 c 11.428255,0.0246 26.052325,0.346521 26.620075,0.770495 2.72486,2.034798 2.72485,5.550289 0,7.585067 -0.99709,0.744569 -38.759675,1.052218 -40.406313,0.329179 -3.624906,-1.591699 -3.357623,-7.275599 0.393257,-8.365898 0.829704,-0.241173 6.536029,-0.333601 13.392981,-0.318843 z"
         inkscape:label="terminal symbol bg" /></g><g
       inkscape:groupmode="layer"
       id="layer4"
       inkscape:label="unfilled"
       style="display:inline"
       sodipodi:insensitive="true"><path
         id="path4"
         style="display:inline;fill:#000000;fill-opacity:1;stroke-width:1.06671"
         d="m 29.782054,92.129547 c -2.237719,-0.994562 -3.256634,-3.605027 -2.300398,-5.893624 0.252834,-0.605116 3.660953,-3.850972 10.140256,-9.657466 5.367684,-4.810306 9.759426,-8.809515 9.759426,-8.88713 0,-0.07761 -4.391742,-4.076823 -9.759426,-8.887129 -10.432759,-9.349426 -10.69957,-9.654842 -10.440715,-11.951392 0.324412,-2.878175 3.443641,-4.772435 6.050305,-3.674256 1.439632,0.606513 24.617943,21.585742 25.085975,22.7059 1.265617,3.029046 1.162583,3.156901 -12.286831,15.246861 C 32.461129,93.329233 32.469121,93.323823 29.782054,92.129547 Z m 36.112021,0.0045 c -3.624909,-1.591696 -3.357923,-7.275846 0.392961,-8.366144 2.212544,-0.643137 39.104724,-0.226743 40.013134,0.451621 2.72486,2.034791 2.72485,5.550674 0,7.585453 -0.99709,0.74457 -38.759455,1.052109 -40.406095,0.32907 z"
         inkscape:label="terminal symbol" /></g><path
       id="path1"
       style="fill:#000000;stroke-width:1.06671"
       d="M 32.181047,135.23621 C 16.703759,133.5084 4.0996219,121.95559 0.67425461,106.35745 c -0.815871,-3.71524 -0.815871,-73.617003 0,-77.332246 C 3.8682707,14.480567 14.531831,3.8170072 29.076468,0.62299107 32.742378,-0.18204639 102.69085,-0.19406889 106.34329,0.60971067 120.9514,3.8244751 131.61406,14.467608 134.81093,29.025204 c 0.81587,3.715243 0.81587,73.617006 0,77.332246 -3.15371,14.36106 -13.31019,24.6875 -27.83774,28.30353 -2.23405,0.55606 -70.276055,1.07939 -74.792143,0.57523 z m 73.704523,-9.59964 c 10.14994,-2.88588 17.33019,-10.20387 19.92344,-20.30566 0.76875,-2.99457 0.76522,-71.927937 -0.004,-75.176768 C 123.26649,19.429788 114.62977,11.251937 103.88385,9.3974976 99.345543,8.6143126 32.477002,8.9281823 29.599613,9.7461752 19.413291,12.641972 12.278851,19.913248 9.6761694,30.051744 c -0.7659693,2.983757 -0.7659693,72.295406 0,75.279166 2.8696346,11.17839 11.7672646,19.27624 22.9282296,20.86729 3.730016,0.53173 71.255881,0.0142 73.281171,-0.56163 z"
       inkscape:label="border" /></g></svg>
